<?xml version="1.0" encoding="iso-8859-1"?>
<svg fill="#000000" height="50px" width="50px" version="1.1" id="Layer_1" xmlns="http://www.w3.org/2000/svg" xmlns:xlink="http://www.w3.org/1999/xlink" 
	 viewBox="0 0 511.999 511.999" xml:space="preserve">
<g>
	<g>
		<g>
			<path d="M361.079,110.717c3.076-4.802,1.674-11.19-3.128-14.264c-30.42-19.474-65.673-29.769-101.95-29.769
				c-104.388,0-189.317,84.927-189.317,189.317s84.928,189.317,189.317,189.317s189.317-84.927,189.315-189.316
				c0-42.677-13.861-82.965-40.087-116.509c-3.51-4.491-10-5.286-14.494-1.775c-4.494,3.512-5.288,10.001-1.775,14.495
				c23.358,29.876,35.704,65.765,35.704,103.787c0,93.002-75.662,168.664-168.664,168.664S87.337,349.001,87.337,255.999
				S162.999,87.336,256.001,87.336c32.323,0,63.725,9.167,90.814,26.51C351.613,116.92,358.003,115.52,361.079,110.717z"/>
			<path d="M500.389,255.999c0-11.871,2.872-25.02,5.649-37.735c4.878-22.338,9.922-45.437,1.246-66.359
				c-9.045-21.812-29.357-34.694-49.002-47.151c-11.117-7.051-21.618-13.709-29.474-21.566
				c-7.855-7.856-14.515-18.356-21.564-29.474c-12.458-19.643-25.34-39.956-47.15-49.001c-20.924-8.674-44.021-3.631-66.36,1.247
				c-12.715,2.777-25.863,5.648-37.734,5.648c-11.871,0-25.019-2.871-37.734-5.648c-22.337-4.878-45.437-9.922-66.36-1.247
				c-21.812,9.044-34.692,29.357-47.15,49.001c-7.049,11.117-13.709,21.618-21.564,29.474c-7.856,7.855-18.358,14.515-29.474,21.564
				C34.073,117.21,13.76,130.093,4.715,151.905c-8.675,20.921-3.632,44.019,1.246,66.357c2.777,12.715,5.649,25.864,5.649,37.735
				c0,11.871-2.872,25.02-5.649,37.735c-4.878,22.338-9.922,45.437-1.246,66.359c9.046,21.813,29.359,34.695,49.003,47.153
				l3.971,2.524c4.808,3.066,11.192,1.656,14.259-3.152c3.069-4.808,1.658-11.192-3.15-14.26l-4.019-2.554
				c-17.713-11.232-34.443-21.842-40.987-37.621c-6.192-14.936-2.043-33.931,2.348-54.041c3.01-13.786,6.123-28.042,6.123-42.143
				c0-14.1-3.112-28.356-6.123-42.143c-4.391-20.11-8.539-39.105-2.348-54.04c6.544-15.78,23.274-26.39,40.986-37.622
				c11.577-7.34,23.545-14.932,33.017-24.402c9.47-9.47,17.062-21.44,24.403-33.017c11.231-17.712,21.841-34.44,37.62-40.983
				c14.935-6.194,33.931-2.046,54.043,2.346c13.785,3.01,28.041,6.123,42.14,6.123c14.099,0,28.353-3.112,42.14-6.123
				c20.112-4.392,39.109-8.541,54.043-2.346c15.779,6.543,26.387,23.271,37.62,40.983c7.341,11.577,14.933,23.547,24.403,33.017
				c9.47,9.47,21.442,17.062,33.017,24.403c17.713,11.232,34.442,21.842,40.986,37.621c6.192,14.936,2.043,33.931-2.347,54.041
				c-3.01,13.786-6.123,28.042-6.123,42.143s3.112,28.356,6.123,42.143c4.391,20.11,8.539,39.105,2.347,54.04
				c-6.544,15.78-23.274,26.39-40.986,37.622c-11.577,7.34-23.545,14.932-33.017,24.402c-9.47,9.47-17.062,21.44-24.403,33.017
				c-11.231,17.712-21.841,34.44-37.62,40.983c-14.935,6.193-33.931,2.046-54.043-2.346c-13.785-3.01-28.041-6.123-42.14-6.123
				c-14.099,0-28.353,3.112-42.14,6.123c-20.112,4.392-39.105,8.541-54.043,2.348c-15.779-6.543-26.387-23.273-37.62-40.983
				c-2.942-4.639-5.984-9.434-9.124-14.031c-3.219-4.709-9.646-5.916-14.352-2.699c-4.709,3.218-5.918,9.643-2.7,14.352
				c2.942,4.304,5.757,8.74,8.735,13.438c12.458,19.643,25.339,39.956,47.15,49.001c8.271,3.428,16.877,4.714,25.645,4.714
				c13.416,0,27.206-3.011,40.715-5.963c12.715-2.777,25.863-5.648,37.734-5.648c11.871,0,25.019,2.871,37.734,5.648
				c22.338,4.878,45.436,9.922,66.36,1.247c21.812-9.045,34.692-29.357,47.15-49.001c7.049-11.117,13.709-21.618,21.564-29.474
				c7.856-7.855,18.357-14.515,29.474-21.564c19.645-12.458,39.957-25.341,49.002-47.153c8.675-20.921,3.632-44.019-1.246-66.357
				C503.261,281.019,500.389,267.87,500.389,255.999z"/>
			<path d="M166.087,345.913c2.017,2.017,4.661,3.025,7.303,3.025c2.642,0,5.286-1.009,7.301-3.025l165.222-165.222
				c4.033-4.031,4.033-10.57,0-14.603s-10.57-4.033-14.604,0L166.087,331.31C162.055,335.341,162.055,341.88,166.087,345.913z"/>
			<path d="M200.927,238.79c20.877,0,37.863-16.985,37.863-37.863c0-20.878-16.986-37.863-37.863-37.863
				s-37.863,16.985-37.863,37.863C163.064,221.805,180.05,238.79,200.927,238.79z M200.927,183.716
				c9.489,0,17.211,7.72,17.211,17.211c0,9.491-7.72,17.211-17.211,17.211c-9.491,0-17.211-7.72-17.211-17.211
				C183.717,191.436,191.437,183.716,200.927,183.716z"/>
			<path d="M311.075,348.938c20.877,0,37.863-16.985,37.863-37.863c0-20.879-16.986-37.863-37.863-37.863
				s-37.863,16.985-37.863,37.863C273.212,331.953,290.198,348.938,311.075,348.938z M311.075,293.864
				c9.489,0,17.211,7.72,17.211,17.211c0,9.491-7.72,17.211-17.211,17.211c-9.491,0-17.211-7.72-17.211-17.211
				C293.864,301.584,301.584,293.864,311.075,293.864z"/>
		</g>
	</g>
</g>
</svg>